<svg width="170" height="55" viewBox="0 0 170 55" fill="none" xmlns="http://www.w3.org/2000/svg">
<path d="M7.09609 4.78912H25.6254C31.8482 4.78912 37.5041 7.37611 41.603 11.5442C45.7022 15.7123 48.2464 21.463 48.2464 27.7904C48.2464 34.1175 45.7022 39.8687 41.603 44.0365C37.5038 48.2046 31.8479 50.7916 25.6254 50.7916H7.09609C5.96891 50.7916 4.94539 50.3241 4.20488 49.5709C3.82424 49.1854 3.52223 48.7272 3.3162 48.2227C3.11017 47.7183 3.00417 47.1773 3.0043 46.6311V8.94968C3.0043 7.80355 3.46409 6.76283 4.20488 6.00988C4.94568 5.25693 5.96891 4.78912 7.09609 4.78912ZM22.6285 8.72348L22.6342 8.71447H21.0324C18.4916 8.70286 15.9094 8.70518 13.3057 8.71447H7.09609C7.03506 8.71526 6.97682 8.74064 6.93417 8.78504C6.91251 8.80655 6.89524 8.83218 6.88333 8.86048C6.87143 8.88878 6.86512 8.91919 6.86477 8.94997V46.6314C6.86477 46.6938 6.89133 46.7525 6.93417 46.796C6.977 46.8396 7.03469 46.8666 7.09609 46.8666H23.2968V33.6752H7.16406L27.0893 8.774V21.9058H43.4201L42.9966 22.5801L43.2614 21.9151L23.2976 46.8645C27.7378 47.0515 30.6136 46.5495 34.1491 44.8057L34.1679 44.7587C35.9046 43.8469 37.4919 42.6672 38.8734 41.2614C42.2747 37.803 44.386 33.0343 44.386 27.7904C44.386 22.5464 42.275 17.7778 38.8734 14.3194C35.7969 11.1911 31.6662 9.1364 27.089 8.77255V8.77313C25.6211 8.75019 24.1329 8.73422 22.6285 8.72348ZM7.13664 33.6752H6.96587L7.23231 33.2507L7.13664 33.6752Z" fill="url(#paint0_linear_1_734)" stroke="#037AED" stroke-width="1.4783"/>
<path fill-rule="evenodd" clip-rule="evenodd" d="M61.9843 10.5703C65.484 10.5703 65.335 16.2237 61.9843 16.2237H59.9241V10.5703H61.9843ZM62.0959 17.7633C67.5319 17.7633 67.6562 9.0307 61.9843 9.0307H59.1422C58.7327 9.0307 58.286 9.35883 58.286 9.81298V16.9807C58.286 17.5359 58.7327 17.763 59.1422 17.763H62.0959V17.7633ZM70.4157 17.3341L70.9495 16.2237H75.529L76.0751 17.3341C76.522 18.3185 78.0236 17.5359 77.5147 16.5518L74.0149 9.47265C73.7045 8.77836 72.8112 8.80362 72.4759 9.47265L68.9142 16.5518C68.666 17.0818 68.9141 17.5362 69.3111 17.7633C69.7578 17.8516 70.217 17.7633 70.4157 17.3341ZM71.7188 14.5581L73.2455 11.4411L74.6477 14.5581H71.7188ZM85.2633 15.2518C85.0771 17.0437 82.4583 16.5138 81.4408 15.8073C81.019 15.4539 80.6589 15.5674 80.3362 15.8956C80.1126 16.2362 80.1003 16.7917 80.5101 17.1323C82.2227 18.5708 86.79 18.495 86.8768 15.2898C86.9639 11.9333 81.5651 13.1195 81.9 11.05C82.1608 9.73748 84.2458 10.0151 85.1642 10.6083C85.9087 11.1635 86.8026 10.0656 85.9587 9.3716C84.2461 8.03411 80.6098 8.47578 80.3242 10.9237C79.939 14.5073 85.102 13.3844 85.2633 15.2518ZM91.0263 17.7633C91.4607 17.7633 91.7831 17.4224 91.7831 16.981V14.2175H95.8292V16.981C95.8292 17.4227 96.2262 17.7633 96.6731 17.7633C97.1077 17.7633 97.4427 17.4224 97.4427 16.981V9.81298C97.4427 9.35854 97.1077 9.0307 96.6731 9.0307C96.2262 9.0307 95.8292 9.35883 95.8292 9.81298V12.564H91.7831V9.81298C91.7831 9.35854 91.4604 9.0307 91.0263 9.0307C90.468 9.0307 90.145 9.35883 90.145 9.81298V16.9807C90.145 17.4224 90.4677 17.7633 91.0263 17.7633ZM101.083 16.9932C101.083 18.0659 102.722 18.0406 102.722 16.9932V9.78772C102.722 8.71505 101.083 8.75309 101.083 9.78772V16.9932ZM106.399 16.8924C106.399 17.4476 106.797 17.7633 107.243 17.7633C107.69 17.7633 108.025 17.4476 108.025 16.8924V12.0216L112.133 17.3216C112.493 17.6622 112.704 17.7633 113.138 17.7633C113.461 17.6625 113.796 17.4476 113.796 16.8924V9.78772C113.796 9.37131 113.362 8.91687 112.915 8.91687C112.493 8.91687 112.133 9.37131 112.133 9.78772V14.6838L108.025 9.45959C107.69 9.13146 107.591 9.01792 107.144 9.01792C106.498 9.01792 106.399 9.45959 106.399 9.91374V16.8924H106.399ZM124.983 16.1102V13.4224C124.983 13.0313 124.561 12.6776 124.101 12.6776H121.619C120.626 12.6776 120.515 14.2175 121.619 14.2175H123.481V15.7695C123.022 16.1102 122.376 16.3372 121.619 16.3372C119.994 16.3372 118.777 15.2016 118.777 13.3338C118.777 11.5544 120.229 10.3304 121.731 10.3304C122.376 10.3304 123.022 10.6713 123.481 11.1255C124.225 11.7945 125.317 10.6713 124.561 9.91403C123.791 9.14424 122.711 8.80362 121.731 8.80362C119.112 8.80362 117.164 10.7849 117.164 13.3341C117.164 16.3375 119.013 17.8518 121.619 17.8518C122.711 17.8518 123.791 17.5365 124.672 16.792C124.884 16.5518 124.983 16.3372 124.983 16.1102ZM61.9843 25.0318C65.484 25.0318 65.335 30.6855 61.9843 30.6855H59.9241V25.0318H61.9843ZM62.0959 32.2248C67.5319 32.2248 67.6562 23.4919 61.9843 23.4919H59.1422C58.7327 23.4919 58.286 23.82 58.286 24.2745V31.4422C58.286 31.9974 58.7327 32.2245 59.1422 32.2245H62.0959V32.2248ZM69.5716 31.455C69.5716 32.5276 71.2096 32.5024 71.2096 31.455V24.2495C71.2096 23.1768 69.5716 23.2149 69.5716 24.2495V31.455ZM79.6659 29.7136C79.4798 31.5055 76.861 30.9756 75.8435 30.2688C75.4214 29.9154 75.0615 30.0289 74.7388 30.357C74.5152 30.6979 74.5029 31.2532 74.9128 31.5938C76.6254 33.0323 81.1924 32.9565 81.2795 29.7513C81.3663 26.3948 75.9677 27.581 76.3027 25.5115C76.5634 24.199 78.6481 24.4766 79.5668 25.0698C80.3116 25.625 81.2052 24.5271 80.3613 23.8328C78.6484 22.4953 75.0121 22.937 74.7268 25.3849C74.3419 28.969 79.5043 27.8461 79.6659 29.7136ZM86.8686 31.4425C86.8686 32.5654 88.5069 32.5401 88.5069 31.4425V25.0698H90.5671C91.6717 25.0698 91.6717 23.4544 90.5671 23.4544H84.6967C83.6169 23.4544 83.6169 25.0698 84.6967 25.0698H86.8686V31.4425ZM96.0568 29.1203H98.0053L99.8793 31.8461C100.624 32.8052 101.915 31.8714 101.269 30.8998L99.6188 28.8555C102.25 27.7825 101.604 23.4922 98.4523 23.4922H95.1509C94.7414 23.4922 94.4062 23.8203 94.4062 24.262V31.4297C94.4062 32.5401 96.0568 32.5024 96.0568 31.4044V29.1203ZM96.0568 25.019H98.4523C100.165 25.019 100.065 27.669 98.4523 27.669H96.0568V25.019ZM104.712 31.455C104.712 32.5276 106.35 32.5024 106.35 31.455V24.2495C106.35 23.1768 104.712 23.2149 104.712 24.2495V31.455ZM115.116 25.9026C115.116 26.5714 114.781 26.912 114.247 26.912H111.629V25.0318H114.247C114.781 25.0318 115.116 25.4862 115.116 25.9026ZM114.657 32.2248C116.519 32.2248 117.487 31.0386 117.487 29.5872C117.487 28.6534 117.052 27.8839 116.072 27.4924C116.593 27.0255 116.754 26.4703 116.754 25.9023C116.754 24.6151 115.873 23.4919 114.247 23.4919H110.76C110.313 23.4919 110.003 23.82 110.003 24.2745V31.4422C110.003 31.8839 110.313 32.2245 110.76 32.2245H114.657V32.2248ZM111.629 28.4519H114.657C116.097 28.4519 116.097 30.6855 114.657 30.6855H111.629V28.4519ZM126.625 28.8935C126.625 31.5308 122.393 31.3795 122.393 28.8935V24.3253C122.393 23.1391 120.767 23.1893 120.767 24.3253V28.8935C120.767 33.6131 128.251 33.6131 128.251 28.8935V24.3253C128.251 23.1138 126.625 23.2021 126.625 24.3253V28.8935H126.625ZM134.138 31.4425C134.138 32.5654 135.776 32.5401 135.776 31.4425V25.0698H137.836C138.941 25.0698 138.941 23.4544 137.836 23.4544H131.966C130.886 23.4544 130.886 25.0698 131.966 25.0698H134.138V31.4425H134.138ZM141.762 31.455C141.762 32.5276 143.401 32.5024 143.401 31.455V24.2495C143.401 23.1768 141.762 23.2149 141.762 24.2495V31.455ZM155.878 27.8081C155.878 24.8172 153.607 23.2904 151.435 23.1768C149.139 23.1768 146.756 24.7036 146.756 27.8081C146.756 30.9001 149.139 32.4521 151.435 32.3511C153.607 32.3511 155.878 30.799 155.878 27.8081ZM154.252 27.8081C154.252 29.7893 152.726 30.799 151.298 30.799C149.908 30.799 148.394 29.7893 148.394 27.8081C148.394 25.8141 149.908 24.8172 151.298 24.8172C152.726 24.8172 154.252 25.8141 154.252 27.8081ZM159.233 31.3539C159.233 31.9091 159.63 32.2248 160.077 32.2248C160.524 32.2248 160.859 31.9091 160.859 31.3539V26.4831L164.967 31.7831C165.327 32.1237 165.538 32.2248 165.972 32.2248C166.295 32.1237 166.63 31.9091 166.63 31.3539V24.2495C166.63 23.8331 166.196 23.3789 165.749 23.3789C165.327 23.3789 164.967 23.8331 164.967 24.2495V29.1456L160.859 23.9214C160.524 23.5932 160.425 23.4797 159.978 23.4797C159.333 23.4797 159.233 23.9214 159.233 24.3755L159.233 31.3539ZM63.0763 44.1753C62.8901 45.9673 60.2716 45.437 59.2538 44.7305C58.8317 44.3771 58.4719 44.4907 58.1489 44.8188C57.9256 45.1597 57.9133 45.7149 58.3228 46.0555C60.0358 47.4941 64.6025 47.4183 64.6896 44.2131C64.7764 40.8563 59.3775 42.0428 59.7125 39.973C59.9732 38.6604 62.0582 38.938 62.9767 39.5313C63.7215 40.0865 64.6147 38.9886 63.7711 38.2946C62.0582 36.9571 58.4219 37.3987 58.1364 39.8466C57.7523 43.4308 62.915 42.3076 63.0763 44.1753ZM76.7573 42.2699C76.7573 39.279 74.4861 37.7521 72.3143 37.6386C70.0182 37.6386 67.6353 39.1654 67.6353 42.2699C67.6353 45.3618 70.0182 46.9139 72.3143 46.8129C74.4864 46.8126 76.7573 45.2605 76.7573 42.2699ZM75.1315 42.2699C75.1315 44.2511 73.6051 45.2608 72.1778 45.2608C70.7876 45.2608 69.2737 44.2511 69.2737 42.2699C69.2737 40.2758 70.7876 39.279 72.1778 39.279C73.6051 39.279 75.1315 40.2758 75.1315 42.2699ZM85.3253 39.5946C85.5524 39.5977 85.7714 39.5091 85.9343 39.3481C86.0971 39.1872 86.1906 38.9671 86.194 38.7362C86.194 38.2821 85.8713 37.9537 85.3253 37.9537H80.969C80.423 37.9537 80.088 38.2818 80.088 38.7362V45.9043C80.088 46.3459 80.4233 46.6865 80.969 46.6865C81.4037 46.6865 81.7136 46.3456 81.7136 45.9043V43.254H84.8783C85.3253 43.254 85.7719 42.9133 85.7719 42.4969C85.7719 42.055 85.325 41.6011 84.8783 41.6011H81.7136V39.5946H85.3253ZM91.7334 45.9043C91.7334 47.0272 93.3718 47.0022 93.3718 45.9043V39.5313H95.432C96.5366 39.5313 96.5366 37.9159 95.432 37.9159H89.5616C88.4821 37.9159 88.4821 39.5313 89.5616 39.5313H91.7334V45.9043ZM105.75 38.4337C105.427 37.6636 104.645 37.7016 104.347 38.4714L102.151 43.6707L100.314 38.4714C99.991 37.4745 98.4148 37.8909 98.7872 39.0266L101.195 45.9043C101.393 46.4595 101.617 46.7623 102.051 46.7623C102.498 46.7623 102.709 46.4595 102.932 45.9295L104.992 41.0206L107.152 46.005C107.4 46.4595 107.537 46.7371 107.983 46.7371C108.405 46.7371 108.616 46.5225 108.84 45.8029L111.297 39.0266C111.669 37.9287 110.168 37.449 109.795 38.4714L107.946 43.6707L105.75 38.4337ZM114.653 46.2574L115.186 45.1469H119.766L120.312 46.2574C120.759 47.2417 122.26 46.4592 121.752 45.4751L118.252 38.3956C117.941 37.7013 117.048 37.7266 116.713 38.3956L113.151 45.4751C112.903 46.005 113.151 46.4595 113.548 46.6865C113.995 46.7748 114.454 46.6865 114.653 46.2574ZM115.956 43.4813L117.482 40.3644L118.885 43.4813H115.956ZM126.36 43.5824H128.309L130.183 46.3079C130.928 47.267 132.218 46.3331 131.573 45.3615L129.922 43.317C132.553 42.2443 131.908 37.9537 128.756 37.9537H125.454C125.045 37.9537 124.71 38.2818 124.71 38.7235V45.8912C124.71 47.0016 126.36 46.9638 126.36 45.8659V43.5824ZM126.36 39.4808H128.756C130.468 39.4808 130.369 42.1308 128.756 42.1308H126.36V39.4808ZM140.351 46.6865C141.568 46.6865 141.481 45.0334 140.351 45.0334H136.566V43.1407H139.693C140.798 43.1407 140.798 41.4873 139.693 41.4873H136.566V39.5946H140.14C141.257 39.5946 141.282 37.954 140.14 37.954H135.685C135.25 37.954 134.915 38.2821 134.915 38.7365V45.9045C134.915 46.3462 135.25 46.6868 135.685 46.6868L140.351 46.6865Z" fill="#11062B"/>
<defs>
<linearGradient id="paint0_linear_1_734" x1="7.98167" y1="51.9532" x2="34.6407" y2="6.54192" gradientUnits="userSpaceOnUse">
<stop stop-color="#0400DB"/>
<stop offset="1" stop-color="#01F8FF"/>
</linearGradient>
</defs>
</svg>
