<svg width="75" height="23" viewBox="0 0 75 23" fill="none" xmlns="http://www.w3.org/2000/svg">
<g clip-path="url(#clip0_0_1054)">
<path d="M8.12264 3.69038V9.97829H2.61368V3.69038H0V18.7005H2.61439V12.6166H8.12193V18.7005H10.737V3.69038H8.12264ZM19.1052 13.849C19.1052 14.4506 18.8773 15.0276 18.4716 15.453C18.0659 15.8784 17.5156 16.1174 16.9419 16.1174C16.3681 16.1174 15.8179 15.8784 15.4122 15.453C15.0065 15.0276 14.7785 14.4506 14.7785 13.849V7.41935H12.2986V13.849C12.2986 15.139 12.7873 16.3762 13.6572 17.2884C14.5271 18.2006 15.707 18.7131 16.9373 18.7131C18.1675 18.7131 19.3474 18.2006 20.2173 17.2884C21.0872 16.3762 21.5759 15.139 21.5759 13.849V7.41935H19.1052V13.849ZM37.4809 8.0819C37.4809 6.76348 38.3123 6.34577 39.2229 6.34577C39.9573 6.34577 40.9267 6.9319 41.5613 7.64267L43.1851 5.635C42.3743 4.485 40.73 3.69038 39.3835 3.69038C36.6927 3.69038 34.7469 5.34267 34.7469 8.0819C34.7469 13.1642 40.6705 11.5512 40.6705 14.3958C40.6705 15.2727 39.8583 16.0473 38.9285 16.0473C37.4618 16.0473 36.9863 15.2957 36.3127 14.5004L34.5099 16.4658C35.6632 17.9496 37.0854 18.7034 38.7884 18.7034C41.3448 18.7034 43.4009 17.0311 43.4009 14.4165C43.4009 8.77487 37.4767 10.5281 37.4767 8.0819M74.1276 16.3025C72.6623 16.3025 72.2455 15.6378 72.2455 14.6198V10.1126H74.5238V7.8289H72.2455V4.8159L69.7309 5.99929V15.18C69.7309 17.5282 71.2762 18.7116 73.3946 18.7116C73.7271 18.7175 74.0597 18.6894 74.3866 18.6285L75 16.2603C74.7234 16.2803 74.4057 16.3003 74.1276 16.3003M28.5453 7.49429C27.317 7.49429 26.4594 7.86822 25.6302 8.72071V3.78016H23.1467V12.9379C23.1467 16.3656 25.5099 18.7146 28.166 18.7146C31.1123 18.7146 33.704 16.3241 33.704 13.1055C33.704 9.92709 31.3189 7.49651 28.5453 7.49651M28.5297 16.0933C28.1596 16.0933 27.7931 16.0169 27.4511 15.8683C27.1092 15.7198 26.7985 15.5021 26.5367 15.2277C26.275 14.9532 26.0674 14.6274 25.9258 14.2688C25.7841 13.9103 25.7112 13.5259 25.7112 13.1378C25.7112 12.7497 25.7841 12.3654 25.9258 12.0068C26.0674 11.6482 26.275 11.3224 26.5367 11.048C26.7985 10.7735 27.1092 10.5558 27.4511 10.4073C27.7931 10.2588 28.1596 10.1823 28.5297 10.1823C29.2772 10.1823 29.9941 10.4937 30.5227 11.048C31.0513 11.6022 31.3482 12.354 31.3482 13.1378C31.3482 13.9217 31.0513 14.6734 30.5227 15.2277C29.9941 15.7819 29.2772 16.0933 28.5297 16.0933ZM55.517 12.969C55.517 9.74458 52.9309 7.36 49.979 7.36C47.3236 7.36 44.9597 9.70822 44.9597 13.1367V22.2996H47.4432V17.3524C48.271 18.2034 49.13 18.5788 50.3568 18.5788C53.1304 18.5788 55.5163 16.1482 55.5163 12.969M53.1651 12.9364C53.1651 13.7202 52.8681 14.472 52.3396 15.0262C51.811 15.5805 51.0941 15.8919 50.3466 15.8919C49.5991 15.8919 48.8822 15.5805 48.3536 15.0262C47.825 14.472 47.5281 13.7202 47.5281 12.9364C47.5281 12.1525 47.825 11.4008 48.3536 10.8465C48.8822 10.2923 49.5991 9.98088 50.3466 9.98088C51.0941 9.98088 51.811 10.2923 52.3396 10.8465C52.8681 11.4008 53.1651 12.1525 53.1651 12.9364Z" fill="#33475B"/>
<path d="M63.542 7.23406V4.61725C63.8718 4.45563 64.151 4.19913 64.3471 3.87758C64.5433 3.55604 64.6483 3.18269 64.65 2.80099V2.7409C64.65 1.62799 63.7896 0.725799 62.7283 0.725799H62.671C62.1613 0.725799 61.6725 0.938103 61.3121 1.31601C60.9518 1.69391 60.7493 2.20646 60.7493 2.7409V2.80099C60.751 3.18269 60.856 3.55604 61.0522 3.87758C61.2483 4.19913 61.5275 4.45563 61.8573 4.61725V7.23406C60.9095 7.38623 60.0169 7.79831 59.2698 8.42857L52.4257 2.83883C52.4745 2.65409 52.5 2.46415 52.5028 2.27348C52.5037 1.82439 52.3775 1.38512 52.1402 1.01125C51.9029 0.637378 51.5653 0.345692 51.1699 0.173087C50.7745 0.000482097 50.3392 -0.0452863 49.919 0.0415709C49.4988 0.128428 49.1126 0.344009 48.8093 0.661044C48.506 0.97808 48.2991 1.38233 48.2149 1.82265C48.1307 2.26298 48.1729 2.7196 48.3362 3.13475C48.4996 3.54991 48.7766 3.90495 49.1324 4.15497C49.4881 4.40499 49.9066 4.53876 50.3349 4.53935C50.7096 4.5375 51.0773 4.43261 51.4012 4.23515L58.1406 9.73438C57.5351 10.6935 57.2193 11.8215 57.2342 12.9716C57.2491 14.1216 57.594 15.2403 58.2241 16.1818L56.1743 18.3319C56.0086 18.2764 55.836 18.2469 55.662 18.2444C55.3105 18.2447 54.9669 18.3542 54.6747 18.5592C54.3825 18.7642 54.1549 19.0554 54.0205 19.396C53.8861 19.7367 53.851 20.1114 53.9196 20.473C53.9883 20.8345 54.1576 21.1666 54.4062 21.4273C54.6547 21.6879 54.9714 21.8655 55.3162 21.9374C55.661 22.0094 56.0184 21.9726 56.3432 21.8317C56.6681 21.6908 56.9458 21.452 57.1413 21.1456C57.3367 20.8393 57.4412 20.479 57.4415 20.1103C57.4392 19.9279 57.4111 19.7469 57.358 19.5732L59.3858 17.4461C60.0471 17.9799 60.8161 18.3479 61.634 18.5219C62.4518 18.696 63.2968 18.6714 64.1042 18.4501C64.9116 18.2288 65.66 17.8167 66.292 17.2452C66.9241 16.6738 67.423 15.9582 67.7505 15.1534C68.0781 14.3485 68.2256 13.4757 68.1818 12.6018C68.138 11.728 67.904 10.8762 67.4978 10.1118C67.0916 9.34736 66.5239 8.6906 65.8382 8.19179C65.1525 7.69299 64.3671 7.36538 63.542 7.23406ZM62.7014 15.8405C62.3266 15.8513 61.9536 15.7833 61.6044 15.6403C61.2551 15.4974 60.9367 15.2825 60.668 15.0084C60.3993 14.7343 60.1857 14.4064 60.0398 14.0443C59.894 13.6821 59.8188 13.293 59.8188 12.8998C59.8188 12.5067 59.894 12.1176 60.0398 11.7554C60.1857 11.3933 60.3993 11.0654 60.668 10.7913C60.9367 10.5172 61.2551 10.3023 61.6044 10.1594C61.9536 10.0164 62.3266 9.94837 62.7014 9.95919C63.4278 9.98586 64.1159 10.3071 64.6209 10.8552C65.1259 11.4033 65.4083 12.1355 65.4087 12.8977C65.409 13.6598 65.1273 14.3923 64.6229 14.941C64.1184 15.4896 63.4306 15.8116 62.7042 15.839" fill="#FF7A59"/>
</g>
<defs>
<clipPath id="clip0_0_1054">
<rect width="75" height="23" fill="white"/>
</clipPath>
</defs>
</svg>
